<svg width="162" height="50" xmlns="http://www.w3.org/2000/svg">

 <g>
  <title>Layer 1</title>
  <text transform="rotate(-0.0847341 107.675 25.4463) matrix(1.26811 0 0 1.46329 -14.9658 -1.90256)" stroke="#000" font-style="normal" font-weight="normal" xml:space="preserve" text-anchor="start" font-family="monospace" font-size="24" id="svg_2" y="26.71588" x="57.12549" stroke-width="0" fill="#f75413">Shoppy</text>
  <g stroke="#000" stroke-width="0" fill="#f75413">
   <title stroke="null">trolley</title>
   <path stroke="null" d="m6.25728,3.42065a1.66756,1.80968 0 0 1 0,-3.61935l4.33649,0l0.16548,0a7.75647,8.41753 0 0 1 4.05645,1.14659a6.23318,6.76442 0 0 1 2.71986,4.19035c0.13578,0.64927 0.28005,1.29855 0.42431,1.94782l37.12328,0a1.66331,1.80507 0 0 1 1.66756,1.80507a1.69726,1.84191 0 0 1 -0.08062,0.56178l-4.33649,18.93484a1.66331,1.80507 0 0 1 -1.6124,1.38143l-27.18159,0c0.61101,2.39909 1.17111,3.68382 1.99428,4.30086c0.96319,0.69993 2.67742,0.75058 5.51609,0.69993l0.0297,0l0,0l19.16629,0a1.66756,1.80968 0 1 1 0,3.61935l-19.15356,0l0,0c-3.50908,0.06907 -5.67733,-0.04144 -7.40853,-1.30776s-2.69864,-3.47661 -3.63638,-7.50579l-5.73249,-23.48436a3.05082,3.31083 0 0 0 -1.27294,-2.06755a4.5826,4.97316 0 0 0 -2.33797,-0.59862l-4.44682,0l0,-0.0046zm39.06664,37.05925a4.07342,4.42059 0 1 1 -4.07342,4.42059a4.07342,4.42059 0 0 1 4.07342,-4.42059zm-17.86364,0a4.07342,4.42059 0 1 1 -4.07342,4.42059a4.07342,4.42059 0 0 1 4.07342,-4.42059zm10.22598,-29.7791l0,6.59865l13.76901,0l1.49783,-6.57562l-15.26684,-0.02302zm0,10.19498l0,5.25405l11.74927,0l1.19657,-5.25405l-12.94584,0zm-3.34784,5.25405l0,-5.25405l-12.93311,0q0.66617,2.62472 1.27294,5.25405l11.66016,0zm0,-8.87341l0,-6.57562l-15.51718,0c0.53464,2.19187 1.09473,4.38375 1.65907,6.57562l13.85811,0z"/>
  </g>
 </g>
</svg>